<?xml version="1.0" encoding="utf-8"?>
<!-- Generator: Adobe Illustrator 15.1.0, SVG Export Plug-In . SVG Version: 6.00 Build 0)  -->
<!DOCTYPE svg PUBLIC "-//W3C//DTD SVG 1.1//EN" "http://www.w3.org/Graphics/SVG/1.1/DTD/svg11.dtd">
<svg version="1.1" id="Layer_1" xmlns="http://www.w3.org/2000/svg" xmlns:xlink="http://www.w3.org/1999/xlink" x="0px" y="0px"
	 width="354px" height="184.833px" viewBox="0 0 354 184.833" enable-background="new 0 0 354 184.833" xml:space="preserve">
<path fill="#666868" d="M31.527,171.311c1.562,0,3.106-0.025,4.596-0.08c7.473-0.252,14.904-1.158,21.458-1.96
	c5.489-0.671,10.23-1.246,13.545-1.246c1.513,0,5.524,0,5.604,2.562c0.006,0.028,0.695,4.502,18.445,4.502
	c9.835,0,22.917-1.379,39.006-4.114c-4.761,0.243-10.36,0.44-15.981,0.44c-16.843,0-27.052-1.731-30.343-5.147
	c-0.874-0.91-1.298-1.945-1.256-3.084c0.066-1.722,1.302-3.104,2.499-4.052c-5.615,0.039-21.124,0.517-31.195,4.438
	c-9.794,3.817-39.069,5.217-53.16,5.674C11.236,170.183,21.169,171.311,31.527,171.311z"/>
<path fill="#666868" d="M128.551,175.115c-14.313,2.394-20.236,3.388-28.064,3.388c-2.52,0-5.165-0.098-8.508-0.299
	c6.938,1.262,17.196,2.605,29.337,2.605l0,0c12.092,0,23.902-1.32,35.11-3.926c24.653-5.729,48.697-7.229,63.721-7.521
	c-6.916-0.533-15.816-0.994-25.879-0.994c-15.849,0-30.925,1.119-44.818,3.322C140.843,173.056,134.028,174.2,128.551,175.115z"/>
<path fill="#666868" d="M165.024,165.758c9.167-0.934,22.386-2.004,34.723-2.004c2.417,0,4.735,0.043,6.905,0.121
	c10.805,0.401,16.969,2.285,23.498,4.276c7.541,2.308,16.094,4.917,33.662,5.573c2.442,0.089,4.867,0.135,7.207,0.135
	c15.558,0,25.822-2.029,31.701-3.744c-4.277,0.445-10.623,0.875-19.142,0.875c-3.271,0-6.699-0.066-10.175-0.195
	c-21.746-0.811-31.784-3.629-31.592-8.873c0.09-2.373,3.467-3.678,10.047-3.877c-3.385-0.935-9.385-1.998-19.133-1.998
	C215.245,156.047,192.514,159.311,165.024,165.758z"/>
<path fill="#666868" d="M276.377,178.368c-9.18-0.345-16.324-1.041-23.236-1.72c-7.521-0.737-14.625-1.433-22.885-1.433
	c-7.461,0-15.415,0.57-24.521,1.781c6.197,0.026,14.402,0.137,23.021,0.459c10.767,0.4,16.396,1.649,21.843,2.862
	c5.45,1.214,11.092,2.466,22.02,2.872c1.734,0.064,3.438,0.098,5.052,0.098c17.086,0,29.989-3.738,43.901-13.047
	c-8.301,3.471-22.967,8.201-41.202,8.201h-0.004C279.04,178.443,277.697,178.417,276.377,178.368z"/>
<g>
	<path fill="#666868" d="M332.709,85.708c0,0-21.311-7.176-28.4-13.209c-4.274-3.634-5.92-7.718-5.92-7.718
		c-4.441-4.817-11.16-7.081-19.576-19.171c0,0-22.459-3.725-24.588-11.998c0,0,1.885,7.483,11.932,12.309
		c4.037,1.937,10.707,4.203,10.707,4.203c7.959,12.144,18.314,17.438,18.314,17.438s2.622,4.041,4.526,6.378
		c5.305,6.514,29.827,11.098,31.457,13.485c0,0,0.521,0.937,0.668,1.845c0.442,2.738,12.356,11.152,12.356,11.152
		s-6.649-6.233-6.89-10.745c-0.431-8.229-11.11-8.905-16.808-15.249c0,0-5.715-8.105-14.092-9.567c0,0,1.297-0.221,7.428,5.152
		c4.617,4.042,9.031,10.718,18.748,15.649"/>
	<path fill="#666868" d="M314.645,83.27c0,0,16.183,4.537,15.996,6.619c-0.188,2.085,12.736,13.13,18.897,14.471
		c2.89,0.628,0.259,1.875-4.172,0.65c-2.499-0.689-4.938-3.369-5.8-3.426c-1.885-0.113-11.385-2.528-11.262-7.194
		C328.428,89.729,314.645,83.27,314.645,83.27z"/>
	<path fill="#666868" d="M250.462,23.038c0.695,0.06-1.97,12.028,10.354,22.484c1.969,1.669-9.314,2.104-9.314,2.104
		c-6.764-0.573-13.145-10.783-21.557-13.224c-8.407-2.443-33.053-7.397-33.053-7.397s9.377,0.378,18.608-8.375
		c1.575-1.496-0.558,1.289-0.487,3.641c0.067,2.346,1.176,4.721,12.514,5.022c11.338,0.303,8.975,8.454,17.113,8.674
		c4.082,0.106,3.657-3.47,3.713-5.553C248.412,28.329,249.77,22.973,250.462,23.038z"/>
	<path fill="#666868" d="M77.192,24.003c1.312-0.779,2.683-1.88,4.229-3.116c1.017-0.817,1.962-1.676,2.906-2.567
		c0.475-0.447,0.962-0.904,1.525-1.314c0.557-0.413,1.191-0.741,1.822-0.985c0.645-0.236,1.233-0.442,1.97-0.56
		c0.72-0.102,1.525-0.002,2.177,0.315c1.308,0.653,2.138,1.529,3.207,1.988c2.097,0.997,4.583,0.618,6.943,0.146
		c2.387-0.479,4.748-1.114,7.112-1.715c4.734-1.209,9.489-2.413,14.443-2.927c4.945-0.488,10.089-0.134,15.029,1.37
		c2.746,0.744,5.526,0.863,8.241,0.712c2.714-0.155,5.37-0.596,7.972-1.219c5.179-1.28,10.23-3.225,14.947-6.296
		c-2.592,1.725-5.423,3.078-8.315,4.261c-2.904,1.183-5.768,2.071-8.686,2.708c-2.92,0.637-5.918,1.035-9.098,1.003
		c-1.434-0.018-2.955-0.162-4.492-0.481c-1.541-0.317-3.079-0.749-4.666-1.001c-3.169-0.501-6.529-0.568-9.7-0.355
		c-4.007,0.321-7.416,1.089-10.217,1.739c-2.805,0.668-5.011,1.272-6.623,1.694c-3.21,0.853-4.001,1.054-2.105,0.588
		c-2.548,0.619-4.332,1.271-7.021,1.538c-1.358,0.096-2.766-0.055-4.018-0.594c-1.269-0.515-2.243-1.445-3.167-1.986
		c-0.925-0.57-1.912-0.473-3.029-0.093c-1.093,0.322-2.029,0.84-2.877,1.602c-0.447,0.435-1.882,1.836-2.424,2.257
		c-1.186,0.978-2.362,1.865-3.617,2.691c-1.26,0.814-2.577,1.515-3.953,2.17c-2.759,1.307-5.756,2.47-9.262,3.645l1.244-0.486
		c-1.291,0.41-1.936,0.612-3.24,0.972C68.23,28.38,73.231,26.397,77.192,24.003z"/>
	<path fill="#666868" d="M216.754,10.516c-0.076-1.22-0.234-2.462-0.701-3.609C213.9,1.662,206.264,0,206.264,0
		c1.707,1.511,3.766,4.13,3.668,7.921c-0.086,3.329-2.018,6.279-5.731,8.764c-3.281,2.193-7.95,4.028-13.877,5.454
		c-9.64,2.311-22.833,3.496-35.294,3.167c-2.038-0.058-4.406-0.386-6.688-0.709c-2.305-0.325-4.482-0.631-6.381-0.684
		c-2.007-0.051-4.667,0.37-7.234,0.779c-2.373,0.374-4.613,0.731-6.167,0.692c-2.598-0.068-12.696,0.093-16.593,0.161
		c-0.625-0.057-1.253-0.117-1.882-0.175l-6.214-0.614l-3.145-0.319l-1.581-0.165l-0.398-0.04l-0.097-0.013l-0.076-0.005
		c-0.027-0.006-0.062-0.006-0.081-0.006l-0.219-0.002c-0.289-0.002-0.572,0.005-0.854,0.02c-1.708,0.096-3.236,0.474-4.649,0.855
		c-1.411,0.391-2.704,0.811-3.894,1.165c-1.808,0.546-3.675,1.108-5.576,1.576c-1.896,0.468-3.854,0.799-5.783,1.085
		c-3.863,0.562-7.643,0.856-10.88,0.932c1.086,0.036,1.91,0.041,2.731,0.041c0.818-0.008,1.639-0.018,2.734-0.055
		c0,0-1.072,0.099-2.151,0.17c2.993-0.096,5.781-0.31,8.422-0.624c1.323-0.157,2.605-0.334,3.866-0.555
		c1.255-0.223,2.479-0.495,3.679-0.779c2.396-0.564,4.704-1.195,7.017-1.704c1.151-0.251,2.315-0.473,3.473-0.596
		c0.578-0.06,1.156-0.097,1.726-0.083l0.21,0.004l0.111,0.006c0.004,0,0.011,0,0.018,0l0.048,0.007l0.45,0.058l0.91,0.113
		c1.084,0.145,4.274,0.433,5.322,0.506c3.75,0.413,7.517,0.842,11.411,1.226c1.944,0.193,3.917,0.373,5.944,0.521
		c2.021,0.142,4.1,0.277,6.267,0.217c1.069-0.036,2.078-0.133,3.041-0.297c0.963-0.167,1.857-0.399,2.721-0.572
		c1.713-0.36,3.502-0.448,5.588-0.352c-1.545-0.067-2.002-0.055-1.407-0.067c0.602,0.006,2.251-0.032,4.874,0.366
		c1.31,0.2,2.856,0.521,4.644,0.961c1.784,0.426,3.809,1.005,6.161,1.386c0.589,0.09,1.196,0.165,1.825,0.211
		c0.635,0.045,1.274,0.054,1.918,0.06c1.294,0.016,2.648,0.008,4.059-0.017c2.821-0.046,5.878-0.149,9.159-0.328
		c5.222-0.282,10.637-0.837,15.859-1.674c5.217-0.834,10.239-1.953,14.641-3.384c2.438-0.797,4.773-1.713,6.953-2.861
		c1.093-0.575,2.148-1.209,3.129-1.938c0.982-0.726,1.898-1.544,2.674-2.483c0.777-0.941,1.402-2.013,1.766-3.179
		c0.184-0.584,0.291-1.186,0.338-1.795C216.803,11.736,216.792,11.125,216.754,10.516z"/>
	<path fill="#666868" d="M272.947,65.015l-0.366,0.245l-0.037-0.082c-0.011-0.02-0.021-0.034-0.026-0.049
		c-0.039-0.047-0.051-0.06-0.154-0.104c-0.098-0.039-0.252-0.078-0.413-0.118c-0.329-0.085-0.298-0.515-0.632-0.671
		c-0.334-0.158-0.635-0.293-0.942-0.496c-0.153-0.103-0.304-0.209-0.45-0.318l-0.756-0.284c-0.557-0.408-1.206-0.557-1.814-0.925
		c-0.61-0.364-1.248-0.713-1.881-1.006c-0.162-0.07-0.32-0.137-0.47-0.192l-0.103-0.032c-0.041-0.017-0.049,0-0.223-0.075
		c-0.074-0.042-0.156-0.103-0.229-0.2c-0.071-0.096-0.102-0.208-0.107-0.294c-0.013-0.173,0.022-0.266,0.049-0.344
		c0.059-0.153,0.117-0.247,0.18-0.339c0.053-0.09,0.109-0.171,0.166-0.249l0.33-0.444c0.103-0.136,0.195-0.277,0.266-0.397
		c0.027-0.058,0.057-0.113,0.062-0.14v-0.002v-0.002l0.041,0.009c0.058,0.004,0.104,0.004,0.137,0.004
		c0.072-0.002,0.096-0.029,0.084-0.018c-0.008,0.007,0.012,0.025-0.012,0.018h-0.021c0.116-0.162-0.168,0.226-0.143,0.178
		l-0.017-0.01c-0.032-0.028-0.065-0.061-0.094-0.1c-0.062-0.065-0.106-0.143-0.14-0.219c-0.071-0.147-0.103-0.284-0.114-0.408
		c-0.034-0.238-0.017-0.431-0.019-0.586l-0.004-0.069l0,0l0,0h-0.017c-0.007,0-0.054,0.004-0.093,0.007
		c-0.039-0.002-0.076-0.007-0.116-0.007c-0.3-0.033-0.527-0.164-0.708-0.295c-0.182-0.13-0.325-0.282-0.46-0.435
		c-0.255-0.311-0.445-0.634-0.589-1c-0.064-0.187-0.137-0.366-0.139-0.653c0-0.079,0.002-0.165,0.041-0.279
		c0.022-0.056,0.051-0.12,0.107-0.194c0.021-0.022,0.043-0.044,0.064-0.067l0.017-0.017l0.011-0.007
		c0.412,0.439,0.112,0.125,0.205,0.217h-0.004c0.004,0.006-0.018-0.018-0.029-0.02c-0.029-0.018-0.048-0.025-0.091-0.037
		c-0.022-0.007-0.042-0.009-0.067-0.012c-0.023-0.007-0.051-0.014-0.078-0.016c-0.028,0-0.01-0.002-0.015-0.007
		c0-0.051-0.028-0.187-0.069-0.308c-0.043-0.129-0.097-0.257-0.151-0.387c-0.062-0.128-0.124-0.255-0.188-0.38l-0.047-0.093
		l-0.009-0.003c-0.269-0.074,0.411-0.727,0.28-0.338l-0.066-0.042c-0.061-0.04-0.078-0.049-0.1-0.06
		c-0.036-0.014-0.051-0.021-0.061-0.026c-0.017-0.004-0.02-0.003-0.027-0.004c-0.01,0-0.035,0.001-0.026,0
		c0.005-0.005-0.021-0.056-0.076-0.116c-0.059-0.063-0.144-0.129-0.233-0.187c-0.099-0.059-0.198-0.11-0.308-0.166
		c-0.146-0.066-0.284-0.148-0.419-0.247c-0.277-0.191-0.523-0.501-0.619-0.832c-0.051-0.157-0.076-0.315-0.087-0.457l-0.002-0.101
		v-0.055c0-0.304,0.026-0.51,0.038-0.653l0.023-0.217l0.037-0.237l0.043-0.257c0.012-0.074,0.021-0.249,0.062-0.398
		c0.165-0.63,0.665-1.152,1.1-1.473c0.371-0.284,0.64-0.409,0.805-0.464c0.166-0.053,0.23-0.031,0.218,0.034
		c-0.022,0.126-0.345,0.434-0.67,0.836c0.06-0.031-0.403,0.437-0.569,0.961c-0.041,0.126-0.057,0.25-0.057,0.359v0.21v0.218
		l-0.018,0.439l-0.022,0.209l-0.019,0.231l-0.008,0.133l0.004,0.075v0.034v0.026l0.004,0.06c0.019,0.157,0.059,0.273,0.135,0.377
		c0.082,0.101,0.22,0.206,0.406,0.299c0.236,0.109,0.521,0.251,0.787,0.5c0.133,0.129,0.275,0.286,0.361,0.533
		c0.042,0.117,0.068,0.262,0.051,0.411c-0.004,0.07-0.021,0.144-0.048,0.215c-0.013,0.038-0.028,0.074-0.042,0.111
		c-0.012,0.018-0.021,0.04-0.036,0.059l-0.009,0.019c0.016-0.233-0.049,0.546,0.016-0.5l0.004,0.011
		c0.151,0.278,0.285,0.549,0.404,0.864c0.062,0.16,0.115,0.322,0.157,0.528c0.015,0.101,0.032,0.215,0.015,0.373
		c-0.007,0.076-0.033,0.18-0.088,0.285c-0.033,0.057-0.068,0.113-0.119,0.159l-0.041,0.04l-0.021,0.014
		c0.03,0.073-0.396-0.538-0.216-0.275l-0.008,0.012c0,0.003,0.008,0.003,0.008,0.003c0.029,0.015,0.104,0.055,0.209,0.066
		c0.041,0.009,0.15,0.018,0.117,0.018v0.011c0.004,0.029,0.012,0.083,0.03,0.135c0.031,0.114,0.079,0.242,0.142,0.361
		c0.125,0.245,0.291,0.489,0.479,0.671c0.093,0.091,0.19,0.161,0.271,0.198c0.041,0.017,0.076,0.024,0.1,0.028
		c0.018,0.005,0.014,0.005,0.041,0l0.04-0.004l0.058-0.002c0.045,0,0.086-0.004,0.131-0.001c0.336,0,0.646,0.204,0.76,0.523
		c0.056,0.146,0.076,0.357,0.078,0.466l-0.002,0.28c0,0.159,0.013,0.298,0.035,0.34c0.002,0.017,0.004,0.019,0.004,0.022
		c0.004,0-0.004,0-0.012,0.004c-0.006,0.007,0.002,0,0,0c-0.006,0,0.061,0.021,0.036,0.012l0.003,0.008l0.012,0.011
		c0.037,0.034,0.072,0.072,0.09,0.103c0.043,0.058,0.076,0.124,0.094,0.191c0.042,0.133,0.039,0.248,0.029,0.342
		c-0.029,0.177-0.08,0.292-0.129,0.401c-0.052,0.105-0.106,0.194-0.162,0.279c-0.111,0.171-0.223,0.319-0.328,0.464
		c-0.111,0.146-0.219,0.285-0.309,0.419c-0.043,0.063-0.085,0.128-0.105,0.173l-0.016,0.028l-0.002,0.014l0,0
		c-0.004,0,0.004,0.002-0.025-0.007c-0.17-0.049-0.285-0.051-0.325-0.035c-0.038,0.018,0.019,0,0.049-0.109
		c0.008-0.01,0.015-0.026,0.019-0.04l0.002-0.024c-0.006,0.024,0.097-0.3,0.056-0.163l0.036,0.01l0.078,0.024
		c0.113,0.034,0.199,0.069,0.289,0.104c0.184,0.071,0.356,0.149,0.529,0.227c0.676,0.322,1.315,0.68,1.938,1.058
		c0.623,0.376,1.226,0.779,1.798,1.198l0.419,0.315c0.135,0.096,0.268,0.191,0.396,0.28c0.267,0.173,0.541,0.325,0.812,0.451
		c0.277,0.123,0.549,0.21,0.854,0.291c0.152,0.039,0.315,0.072,0.522,0.154c0.202,0.076,0.455,0.263,0.584,0.478
		c0.14,0.23,0.162,0.343,0.231,0.479L272.947,65.015z"/>
	<path fill="#666868" d="M275.031,59.991c0,0-5.84-0.468-6.227,1.502c-0.386,1.979,4.158,4.145,4.158,4.145
		S275.609,64.285,275.031,59.991z"/>
	<path fill="#666868" d="M273.666,61.203c-0.018,0.003-0.025,0.003-0.059-0.005c-0.225-0.051-0.527-0.269-0.238-0.721
		c0.004-0.011,0.029-0.039,0.047-0.048c0.023-0.01,0.508-0.15,1.146-0.517c0.211-0.115,0.545-0.335,0.697-0.452
		c0.359-0.258,0.564-0.445,0.564-0.445s0.238-0.171,0.554-0.431c0.315-0.253,0.698-0.597,1.011-0.893
		c0.521-0.507,0.696-0.66,0.723-0.548c0.021,0.109-0.133,0.462-0.391,0.853c0.038-0.029-0.277,0.431-0.65,0.863
		c-0.373,0.439-0.803,0.844-0.803,0.844s-0.192,0.164-0.527,0.412c-0.163,0.123-0.536,0.364-0.773,0.502
		C274.255,61.029,273.693,61.189,273.666,61.203z"/>
	<path fill="#666868" d="M279.312,56.146c0,0-2.056,8.104-5.262,9.901c-0.512,0.286,11.03,5.106,15.844-0.851
		c0,0-12.059,3.817-11.694-3.382c0.229-4.516,6.173,0.076,6.173,0.076S279.848,57.29,279.312,56.146z"/>
</g>
<g>
	<path fill="#035390" d="M41.113,104.02c-2.209,0-4.35-1.298-5.064-3.443l-2.793-8.311H16.501l-2.792,8.311
		c-0.845,2.146-2.924,3.51-5.131,3.51c-3.378,0-5.325-2.794-5.325-5.585c0-0.65,0.13-1.299,0.324-1.95l11.624-32.275
		c1.82-4.871,5.456-7.145,9.742-7.145c4.351,0,8.052,2.273,9.805,7.145l11.431,32.275c0.196,0.585,0.324,1.234,0.324,1.884
		C46.502,101.229,44.489,104.02,41.113,104.02z M19.682,82.914h10.455l-4.543-13.832c-0.13-0.326-0.327-0.521-0.651-0.521
		s-0.521,0.195-0.584,0.521L19.682,82.914z"/>
	<path fill="#035390" d="M77.025,93.047c0,7.207-6.626,11.43-14.224,11.43c-6.754,0-10.713-2.079-12.857-3.768
		c-1.883-1.561-2.34-4.611-0.911-6.494c1.559-2.144,4.156-2.534,6.819-0.975c1.884,1.168,4.481,2.014,7.079,2.014
		c2.728,0,3.769-0.976,3.769-2.077c0-0.911-0.78-1.69-2.987-2.145c-2.471-0.52-2.274-0.453-4.872-1.103
		c-4.936-1.301-9.677-4.352-9.677-10.586c0-7.275,6.496-11.431,14.288-11.431c3.897,0,8.314,1.17,10.781,3.248
		c2.143,1.883,1.949,4.937,0.583,6.689c-1.493,1.818-4.219,1.948-6.883,0.715c-1.429-0.715-3.183-1.234-5.132-1.234
		c-2.597,0-3.506,0.908-3.506,1.884c0,1.04,0.909,1.558,3.248,2.078c1.169,0.194,3.051,0.648,4.156,0.91
		C73.712,83.822,77.025,87.136,77.025,93.047z"/>
	<path fill="#035390" d="M92.218,69.536c1.04-0.649,3.768-1.624,6.883-1.624c8.64,0,13.444,5.197,13.444,14.742v15.847
		c0,3.181-2.207,5.648-5.455,5.648c-2.921,0-5.262-2.468-5.262-5.648V83.174c0-3.181-2.013-4.74-4.674-4.74
		c-2.08,0-3.896,0.78-4.936,1.623v18.575c0,3.051-2.271,5.519-5.326,5.519c-2.922,0-5.389-2.468-5.389-5.519V62.457
		c0-3.181,2.274-5.584,5.325-5.584c2.988,0,5.39,2.403,5.39,5.584V69.536z"/>
	<path fill="#035390" d="M122.802,69.146c0-8.766,5.132-12.923,12.34-12.923c2.466,0,5.391,0.391,7.08,0.908
		c2.531,0.781,4.155,2.467,4.155,5.131c0,2.467-1.819,4.547-4.936,4.547c-1.493,0-3.052-0.845-5.001-0.845
		c-1.817,0-2.858,1.232-2.858,3.441v1.559h6.562c2.596,0,4.87,1.948,4.87,4.741c0,2.597-2.273,4.611-4.87,4.611h-6.562v18.184
		c0,3.181-2.272,5.648-5.388,5.648c-2.987,0-5.391-2.468-5.391-5.648V80.318h-1.168c-2.728,0-4.871-2.014-4.871-4.611
		c0-2.793,2.144-4.741,4.871-4.741h1.168V69.146z"/>
	<path fill="#035390" d="M178.649,81.291c0.26,2.661,0.26,6.884,0,9.481c-0.715,7.859-7.273,13.705-16.169,13.705
		c-8.77,0-15.458-5.846-16.171-13.705c-0.26-2.597-0.26-6.82,0-9.481c0.713-7.858,7.401-13.379,16.171-13.379
		C171.376,67.912,177.935,73.433,178.649,81.291z M156.895,83.109c-0.13,1.494-0.13,4.417,0,5.846
		c0.324,3.182,2.337,5.193,5.585,5.193c3.246,0,5.388-2.012,5.519-5.193c0.066-1.429,0.066-4.352,0-5.846
		c-0.131-2.986-2.208-4.999-5.519-4.999C159.166,78.11,157.219,80.123,156.895,83.109z"/>
	<path fill="#035390" d="M204.365,73.757c0,2.34-1.559,5.195-4.805,5.195c-0.91,0-2.468-0.518-4.286-0.518
		c-1.689,0-2.665,0.91-2.665,3.313v17.015c0,2.987-2.336,5.389-5.387,5.389c-2.925,0-5.393-2.401-5.393-5.389V79.473
		c0-7.014,4.092-11.561,11.949-11.561c2.143,0,4.871,0.327,6.496,0.781C203.326,69.471,204.365,71.29,204.365,73.757z"/>
	<path fill="#035390" d="M221.118,67.912c2.077,0,4.871,0.521,6.625,1.298v-6.818c0-3.051,2.467-5.521,5.39-5.521
		c3.115,0,5.389,2.47,5.389,5.521v34.356c0,1.753-0.518,2.661-1.816,3.571c-2.013,1.429-7.08,4.09-14.157,4.09
		c-9.224,0-15.196-5.975-15.911-13.83c-0.196-2.275-0.261-6.884,0-9.225C207.352,73.367,212.352,67.912,221.118,67.912z
		 M222.809,93.956c1.816,0,4.089-0.908,4.935-1.625V79.473c-0.91-0.585-3.118-1.363-5.392-1.363c-3.312,0-4.935,1.947-5.065,5.064
		c-0.131,1.299-0.131,3.962,0,5.455C217.417,92.007,219.43,93.956,222.809,93.956z"/>
</g>
<g>
	<path fill="#035390" d="M10.532,125.029H6.196c-1.52,0-2.722-1.234-2.722-2.658c0-1.52,1.203-2.658,2.722-2.658h14.05
		c1.519,0,2.722,1.139,2.722,2.658c0,1.424-1.267,2.658-2.722,2.658h-4.335v14.524c0,1.52-1.139,2.723-2.658,2.723
		c-1.456,0-2.721-1.266-2.721-2.723V125.029z"/>
	<path fill="#035390" d="M53.131,131.167c0.127,1.298,0.127,3.354,0,4.62c-0.348,3.829-3.544,6.678-7.88,6.678
		c-4.271,0-7.531-2.849-7.879-6.678c-0.127-1.266-0.127-3.322,0-4.62c0.348-3.828,3.607-6.52,7.879-6.52
		C49.587,124.648,52.784,127.339,53.131,131.167z M42.53,132.054c-0.064,0.728-0.064,2.151,0,2.848
		c0.158,1.551,1.139,2.531,2.721,2.531c1.583,0,2.627-0.98,2.691-2.531c0.031-0.696,0.031-2.12,0-2.848
		c-0.064-1.456-1.076-2.438-2.691-2.438C43.638,129.617,42.688,130.598,42.53,132.054z"/>
	<path fill="#035390" d="M83.264,131.706c-0.031-0.094-0.095-0.126-0.158-0.126c-0.062,0-0.158,0.032-0.158,0.126l-1.393,6.994
		c-0.537,2.5-2.119,3.639-4.113,3.639c-1.962,0-3.576-1.139-4.146-3.575l-2.405-10.032c-0.475-2.119,0.506-3.892,2.468-3.892
		c1.171,0,2.279,0.727,2.532,2.089c0.665,3.386,1.266,6.582,1.614,10.125c0,0.096,0.095,0.127,0.158,0.127
		c0.064,0,0.126-0.031,0.158-0.127c0.539-3.291,1.076-6.519,1.709-9.239c0.412-1.772,1.771-2.975,3.576-2.975
		c1.772,0,3.165,1.328,3.576,2.975c0.728,2.911,1.203,6.075,1.709,9.239c0,0.096,0.095,0.127,0.158,0.127
		c0.062,0,0.126-0.031,0.158-0.127c0.379-3.354,0.791-6.676,1.582-10.125c0.222-1.362,1.361-2.089,2.564-2.089
		c1.961,0,2.943,1.772,2.436,3.892l-2.373,10.032c-0.57,2.437-2.184,3.575-4.146,3.575c-1.993,0-3.608-1.139-4.145-3.639
		L83.264,131.706z"/>
	<path fill="#035390" d="M128.65,139.617c0,1.487-1.107,2.69-2.626,2.69c-1.393,0-2.595-1.203-2.595-2.69v-7.531
		c0-1.613-1.076-2.31-2.342-2.31c-0.981,0-1.867,0.285-2.342,0.602v9.239c0,1.487-1.139,2.69-2.627,2.69
		c-1.392,0-2.626-1.203-2.626-2.69v-11.455c0-0.886,0.253-1.33,0.886-1.772c1.013-0.695,3.418-1.741,6.835-1.741
		c4.937,0,7.437,2.564,7.437,7.185V139.617z"/>
	<path fill="#035390" d="M185.747,135.503c0,3.956-3.354,7.058-8.988,7.058c-3.797,0-6.329-1.203-7.721-2.311
		c-0.887-0.665-1.361-1.424-1.361-2.342c0-1.582,1.203-2.754,2.69-2.754c0.539,0,1.139,0.127,1.962,0.76
		c1.139,0.822,2.848,1.487,4.873,1.487c1.899,0,3.132-0.665,3.132-1.867c0-1.329-1.961-1.677-4.461-2.215
		c-5.285-1.107-7.659-3.006-7.659-7.057c0-4.115,3.64-6.867,8.355-6.867c3.259,0,5.949,0.76,7.248,1.867
		c0.6,0.537,0.854,1.266,0.854,2.025c0,1.393-1.045,2.5-2.469,2.5c-0.633,0-1.266-0.254-1.93-0.539
		c-0.76-0.379-1.962-0.79-3.734-0.79c-2.025,0-2.912,0.918-2.912,1.835c0,1.107,1.139,1.614,3.861,2.088
		C183.151,129.428,185.747,131.547,185.747,135.503z"/>
	<path fill="#035390" d="M197.808,138.446v1.709c0,1.298-0.981,2.279-2.311,2.279c-1.266,0-2.31-0.981-2.31-2.279v-1.709
		c0-1.297,0.98-2.31,2.31-2.31C196.731,136.136,197.808,137.149,197.808,138.446z"/>
	<path fill="#035390" d="M220.499,135.25c0.538-0.886,1.076-1.519,2.343-1.519c1.233,0,2.626,1.045,2.626,2.5
		c0,0.475-0.031,0.822-0.284,1.487c-1.425,3.229-4.905,4.843-8.418,4.843c-5.569,0-9.335-3.988-9.778-9.051
		c-0.158-1.71-0.158-3.418,0-5c0.443-5.128,4.209-9.114,9.746-9.114c3.545,0,7.025,1.614,8.45,4.842
		c0.253,0.664,0.284,1.012,0.284,1.487c0,1.456-1.393,2.5-2.626,2.5c-1.267,0-1.836-0.761-2.343-1.52
		c-0.854-1.425-2.151-2.215-3.766-2.215c-2.689,0-4.209,2.057-4.398,4.81c-0.062,1.14-0.062,2.405,0,3.546
		c0.189,2.783,1.709,4.619,4.398,4.619C218.348,137.465,219.646,136.674,220.499,135.25z"/>
	<path fill="#035390" d="M237.592,138.446v1.709c0,1.298-0.981,2.279-2.31,2.279c-1.266,0-2.311-0.981-2.311-2.279v-1.709
		c0-1.297,0.98-2.31,2.311-2.31C236.516,136.136,237.592,137.149,237.592,138.446z"/>
</g>
</svg>
